{
  "asset": { "version": "2.0" },
  "buffers": [ { "uri": "data:application/octet-stream;base64,", "byteLength": 44 } ],
  "bufferViews": [ { "buffer": 0, "byteOffset": 0, "byteLength": 36 }, { "buffer": 0, "byteOffset": 36, "byteLength": 6 } ],
  "accessors": [ { "bufferView": 0, "byteOffset": 0, "componentType": 5126, "count": 3, "type": "VEC3", "min": [-0.5, -0.5, 0], "max": [0.5, 0.5, 0] }, { "bufferView": 1, "byteOffset": 0, "componentType": 5123, "count": 3, "type": "SCALAR" } ],
  "meshes": [ { "primitives": [ { "attributes": { "POSITION": 0 }, "indices": 1, "mode": 4 } ] } ],
  "nodes": [ { "mesh": 0 } ],
  "scenes": [ { "nodes": [0] } ],
  "scene": 0
}
